<svg xmlns="http://www.w3.org/2000/svg" xmlns:xlink="http://www.w3.org/1999/xlink" id="ui-icons-sprite">
  <view id="arrowLongLeft" viewBox="0 0 16 16"/>
  <path fill="#ffffff" transform="translate(0, 0)" d="M5.529125,6.37737233 L8.112125,3.91237233 C8.543125,3.50137233 8.587125,2.85237233 8.218125,2.39037233 C8.132125,2.28137233 8.029125,2.17237233 7.905125,2.06537233 C7.714125,1.89837233 7.538125,1.77537233 7.382125,1.68837233 C6.987125,1.46137233 6.498125,1.49237233 6.113125,1.73237233 C5.631125,2.03637233 3.812125,3.63337233 2.501125,4.86837233 C1.572125,5.74237233 0.941125,6.46937233 0.528125,7.00137233 C0.069125,7.59337233 0.069125,8.39337233 0.528125,8.98437233 C0.941125,9.51637233 1.572125,10.2433723 2.501125,11.1183723 C3.812125,12.3533723 5.646125,13.9633723 6.128125,14.2673723 C6.512125,14.5083723 7.002125,14.5373723 7.397125,14.3133723 C7.553125,14.2243723 7.729125,14.1033723 7.920125,13.9353723 C8.044125,13.8283723 8.146125,13.7183723 8.233125,13.6103723 C8.602125,13.1483723 8.558125,12.4993723 8.127125,12.0873723 L5.636125,9.71037233 L14.882125,9.71037233 C15.398125,9.71037233 15.816125,9.29337233 15.816125,8.77737233 L15.816125,7.31037233 C15.816125,6.79537233 15.398125,6.37737233 14.882125,6.37737233 L5.529125,6.37737233 Z"/>
  
  <view id="arrowLongRight" viewBox="20 0 16 16"/>
  <path transform="translate(20, 0)" d="M1.117875,6.37737233 L10.470875,6.37737233 L7.887875,3.91237233 C7.456875,3.50137233 7.412875,2.85237233 7.781875,2.39037233 C7.867875,2.28137233 7.970875,2.17237233 8.094875,2.06537233 C8.285875,1.89837233 8.461875,1.77537233 8.617875,1.68837233 C9.012875,1.46137233 9.501875,1.49237233 9.886875,1.73237233 C10.368875,2.03637233 12.187875,3.63337233 13.498875,4.86837233 C14.427875,5.74237233 15.058875,6.46937233 15.471875,7.00137233 C15.930875,7.59337233 15.930875,8.39337233 15.471875,8.98437233 C15.058875,9.51637233 14.427875,10.2433723 13.498875,11.1183723 C12.187875,12.3533723 10.353875,13.9633723 9.871875,14.2673723 C9.487875,14.5083723 8.997875,14.5373723 8.602875,14.3133723 C8.446875,14.2243723 8.270875,14.1033723 8.079875,13.9353723 C7.955875,13.8283723 7.853875,13.7183723 7.766875,13.6103723 C7.397875,13.1483723 7.441875,12.4993723 7.872875,12.0873723 L10.363875,9.71037233 L1.117875,9.71037233 C0.601875,9.71037233 0.183875,9.29337233 0.183875,8.77737233 L0.183875,7.31037233 C0.183875,6.79537233 0.601875,6.37737233 1.117875,6.37737233 Z"/>
  
  <view id="arrowShortLeft" viewBox="40 0 16 16"/>
  <path transform="translate(40, 0)" d="M11.4649676,3.47264532 C12.1135333,2.87229027 12.1798311,1.92450136 11.6235058,1.24960112 C11.4937927,1.09119258 11.3395782,0.931452874 11.153656,0.775706663 C10.8654046,0.530772451 10.6002133,0.352396449 10.3652884,0.224604686 C9.77149052,-0.105524034 9.0335669,-0.0615956157 8.45562281,0.289831732 C7.72922925,0.733109409 6.46380554,1.63430757 4.49072462,3.43803505 C3.09270526,4.71462152 2.14003434,5.77555938 1.51885254,6.55162811 C0.827049152,7.41688483 0.827049152,8.58431583 1.51885254,9.4482414 C2.14003434,10.2243101 3.09270526,11.2865791 4.49072462,12.5631656 C6.46380554,14.3668931 7.72922925,15.2667601 8.45562281,15.7100378 C9.0335669,16.0627963 9.77149052,16.1040624 10.3652884,15.776596 C10.6002133,15.6474731 10.8654046,15.4704282 11.153656,15.225494 C11.3395782,15.0697478 11.4937927,14.9086769 11.6235058,14.7515995 C12.1798311,14.0766993 12.1135333,13.1289104 11.4649676,12.5272242 L6.49983697,7.99993475 L11.4649676,3.47264532 Z"/>
  
  <view id="arrowShortBottom" viewBox="60 0 16 16"/>
  <path transform="translate(60, 0)" d="M12.5273547,3.53503243 C13.1277097,2.88646675 14.0754986,2.82016892 14.7503989,3.37649415 C14.9088074,3.50620729 15.0685471,3.66042179 15.2242933,3.84634396 C15.4692275,4.13459537 15.6476036,4.39978667 15.7753953,4.63471157 C16.105524,5.22850948 16.0615956,5.9664331 15.7101683,6.54437719 C15.2668906,7.27077075 14.3656924,8.53619446 12.5619649,10.5092754 C11.2853785,11.9072947 10.2244406,12.8599657 9.44837189,13.4811475 C8.58311517,14.1729508 7.41568417,14.1729508 6.5517586,13.4811475 C5.77568988,12.8599657 4.71342085,11.9072947 3.43683439,10.5092754 C1.6331069,8.53619446 0.733239907,7.27077075 0.28996223,6.54437719 C-0.0627962821,5.9664331 -0.104062372,5.22850948 0.22340402,4.63471157 C0.352526947,4.39978667 0.529571785,4.13459537 0.774505997,3.84634396 C0.930252208,3.66042179 1.09132308,3.50620729 1.24840045,3.37649415 C1.9233007,2.82016892 2.8710896,2.88646675 3.47277582,3.53503243 L8.00006525,8.50016303 L12.5273547,3.53503243 Z"/>
  
  <view id="arrowShortRight" viewBox="80 0 16 16"/>
  <path transform="translate(80, 0)" d="M4.53503243,3.47264532 C3.88646675,2.87229027 3.82016892,1.92450136 4.37649415,1.24960112 C4.50620729,1.09119258 4.66042179,0.931452874 4.84634396,0.775706663 C5.13459537,0.530772451 5.39978667,0.352396449 5.63471157,0.224604686 C6.22850948,-0.105524034 6.9664331,-0.0615956157 7.54437719,0.289831732 C8.27077075,0.733109409 9.53619446,1.63430757 11.5092754,3.43803505 C12.9072947,4.71462152 13.8599657,5.77555938 14.4811475,6.55162811 C15.1729508,7.41688483 15.1729508,8.58431583 14.4811475,9.4482414 C13.8599657,10.2243101 12.9072947,11.2865791 11.5092754,12.5631656 C9.53619446,14.3668931 8.27077075,15.2667601 7.54437719,15.7100378 C6.9664331,16.0627963 6.22850948,16.1040624 5.63471157,15.776596 C5.39978667,15.6474731 5.13459537,15.4704282 4.84634396,15.225494 C4.66042179,15.0697478 4.50620729,14.9086769 4.37649415,14.7515995 C3.82016892,14.0766993 3.88646675,13.1289104 4.53503243,12.5272242 L9.50016303,7.99993475 L4.53503243,3.47264532 Z"/>
  
  <view id="arrowShortTop" viewBox="100 0 16 16"/>
  <path transform="translate(100, 0)" d="M12.5273547,3.53503243 C13.1277097,2.88646675 14.0754986,2.82016892 14.7503989,3.37649415 C14.9088074,3.50620729 15.0685471,3.66042179 15.2242933,3.84634396 C15.4692275,4.13459537 15.6476036,4.39978667 15.7753953,4.63471157 C16.105524,5.22850948 16.0615956,5.9664331 15.7101683,6.54437719 C15.2668906,7.27077075 14.3656924,8.53619446 12.5619649,10.5092754 C11.2853785,11.9072947 10.2244406,12.8599657 9.44837189,13.4811475 C8.58311517,14.1729508 7.41568417,14.1729508 6.5517586,13.4811475 C5.77568988,12.8599657 4.71342085,11.9072947 3.43683439,10.5092754 C1.6331069,8.53619446 0.733239907,7.27077075 0.28996223,6.54437719 C-0.0627962821,5.9664331 -0.104062372,5.22850948 0.22340402,4.63471157 C0.352526947,4.39978667 0.529571785,4.13459537 0.774505997,3.84634396 C0.930252208,3.66042179 1.09132308,3.50620729 1.24840045,3.37649415 C1.9233007,2.82016892 2.8710896,2.88646675 3.47277582,3.53503243 L8.00006525,8.50016303 L12.5273547,3.53503243 Z"/>
  
  <view id="bonus" viewBox="120 0 16 16"/>
  <path transform="translate(120, 0)" d="M4.999825,2.750175 C4.999825,4.131175 3.880825,5.250175 2.499825,5.250175 C1.118825,5.250175 -0.000175,4.131175 -0.000175,2.750175 C-0.000175,1.369175 1.118825,0.250175 2.499825,0.250175 C3.880825,0.250175 4.999825,1.369175 4.999825,2.750175 Z M15.267425,0.982575 C16.244425,1.958575 16.244425,3.541575 15.267425,4.517575 C14.291425,5.494575 12.708425,5.494575 11.732425,4.517575 C10.755425,3.541575 10.755425,1.958575 11.732425,0.982575 C12.708425,0.005575 14.291425,0.005575 15.267425,0.982575 Z M7.750325,15.750175 C3.167325,15.750175 0.696325,13.116175 0.593325,13.003175 C-0.046675,12.306175 -0.360675,11.593175 0.656325,10.542175 C1.672325,9.490175 2.329325,9.967175 3.025325,10.594175 C3.128325,10.688175 4.880325,12.268175 7.750325,12.268175 C10.620325,12.268175 13.027325,10.500175 13.048325,10.484175 C13.801325,9.910175 14.413325,9.626175 15.423325,10.672175 C16.434325,11.715175 15.948325,12.500175 15.242325,13.126175 C15.122325,13.233175 12.234325,15.750175 7.750325,15.750175 Z"/>
  
  <view id="bell" viewBox="140 0 16 16"/>
  <path transform="translate(140, 0)" d="M13.616294,8.21210082 C12.8264608,10.9665767 14.674449,9.8134553 13.8222327,12.7854869 C13.4059049,14.2373944 9.79849065,13.8165354 7.29186632,13.0977724 C4.785242,12.3790094 1.5029599,10.8242798 1.91928767,9.37237232 C2.77150402,6.40034074 3.72762568,8.35752777 4.51745894,5.60305185 C5.66308724,1.60777118 7.31407178,0.796219329 8.89303387,1.24897942 C8.89303387,1.24897942 9.07873645,1.32218164 9.13292515,1.1332032 C9.27275841,0.645546657 9.98009223,-0.24005703 11.0300932,0.0610259091 C12.0800942,0.362108848 12.2106489,1.48797319 12.0708156,1.97562974 C12.0166269,2.16460817 12.2129029,2.20093655 12.2129029,2.20093655 C13.7909848,2.65344427 14.7619223,4.21682015 13.616294,8.21210082 Z M8.3625597,14.476357 C8.59315505,14.5424792 8.70450707,14.8218243 8.57927705,15.0393164 C8.15629458,15.7769987 7.2996476,16.1668577 6.47936183,15.9316445 C5.65907606,15.6964313 5.13919198,14.9118585 5.17051441,14.0618695 C5.18044675,13.8113162 5.42290897,13.6334257 5.65350433,13.6995479 L8.3625597,14.476357 Z"/>
  
  <view id="attention" viewBox="160 0 16 16"/>
  <path transform="translate(160, 0)" d="M8,12 C9.10447761,12 10,12.8948961 10,14.0004035 C10,15.1051039 9.10447761,16 8,16 C6.89552239,16 6,15.1051039 6,14.0004035 C6,12.8948961 6.89552239,12 8,12 Z M7.54013715,11 C6.88342073,11 6.32674466,10.5490166 6.25574829,9.94826021 C6.14118596,8.97639939 6,7.38298033 6,5.38850227 C6,3.45726172 6.13231142,1.97367625 6.24526019,1.0575643 C6.31948366,0.453479576 6.86970553,0 7.52964905,0 L8.48810004,0 C9.15530456,0 9.70956031,0.465960666 9.77571601,1.07753404 C9.87736991,2.0327534 10,3.5795764 10,5.53744327 C10,7.47783661 9.87979024,8.99054463 9.77732957,9.92662632 C9.71117386,10.5373676 9.15772489,11 8.49132715,11 L7.54013715,11 Z"/>
  
  <view id="calendar" viewBox="180 0 16 16"/>
  <path transform="translate(180, 0)" stroke="none" stroke-width="1" fill-rule="evenodd" d="M14,12.154 C14,13.215 13.905,13.392 13.836,13.521 C13.761,13.663 13.664,13.759 13.522,13.836 C13.393,13.905 13.215,14 12.154,14 L3.846,14 C2.785,14 2.608,13.905 2.479,13.836 C2.337,13.759 2.24,13.663 2.165,13.521 C2.096,13.392 2,13.215 2,12.154 L2,8.845 C2,7.785 2.096,7.607 2.165,7.477 C2.24,7.336 2.337,7.24 2.479,7.164 C2.608,7.094 2.785,7 3.846,7 L12.154,7 C13.215,7 13.393,7.094 13.522,7.164 C13.664,7.24 13.761,7.336 13.836,7.477 C13.905,7.607 14,7.785 14,8.845 L14,12.154 Z M15.6,3.535 C15.861,4.023 16,4.508 16,5.845 L16,12.154 C16,13.491 15.861,13.976 15.6,14.465 C15.338,14.954 14.955,15.338 14.466,15.599 C13.977,15.86 13.492,16 12.154,16 L3.846,16 C2.509,16 2.024,15.86 1.535,15.599 C1.046,15.338 0.662,14.954 0.401,14.465 C0.14,13.976 0,13.491 0,12.154 L0,5.845 C0,4.508 0.14,4.023 0.401,3.535 C0.662,3.046 1.046,2.662 1.535,2.4 C1.903,2.203 2.271,2.076 3,2.025 L3,1.255 C3,0.841 3.047,0.675 3.134,0.511 C3.221,0.348 3.349,0.22 3.512,0.133 C3.675,0.047 3.842,0 4.255,0 L4.746,0 C5.158,0 5.326,0.047 5.488,0.133 C5.652,0.22 5.779,0.348 5.867,0.511 C5.954,0.675 6,0.841 6,1.255 L6,2 L10,2 L10,1.255 C10,0.841 10.047,0.675 10.134,0.511 C10.221,0.348 10.349,0.22 10.512,0.133 C10.675,0.047 10.842,0 11.255,0 L11.746,0 C12.158,0 12.326,0.047 12.488,0.133 C12.652,0.22 12.779,0.348 12.867,0.511 C12.954,0.675 13,0.841 13,1.255 L13,2.025 C13.73,2.076 14.098,2.203 14.466,2.4 C14.955,2.662 15.338,3.046 15.6,3.535 Z M8,8.49965 C6.8959724,8.49965 5.99995,9.3956724 5.99995,10.4997 C5.99995,11.6037276 6.8959724,12.49975 8,12.49975 C9.10536097,12.49975 10.00005,11.6037276 10.00005,10.4997 C10.00005,9.3956724 9.10536097,8.49965 8,8.49965 Z"/>

  <view id="cart" viewBox="0 20 16 16"/>
  <path transform="translate(0, 20)" d="M14.5752313,3.70336919 C15.2556725,3.70336919 15.8357206,4.2061074 15.9168462,4.88490577 C15.9634935,5.27264516 16,5.72449895 16,6.19060037 C16,6.66179024 15.9624794,7.11771478 15.9158322,7.50748955 C15.8235518,8.2687207 15.3611358,8.93021836 14.6766384,9.27012638 C13.9282545,9.64260045 12.7701863,10.1341441 11.1831664,10.5727679 C9.78577767,10.9584719 8.51616174,11.2332479 7.54772468,11.4174495 C6.47686652,11.6230227 5.43643047,10.9808611 5.1220687,9.93365942 L3.16491317,3.39093875 C3.04423881,2.98895172 2.67613132,2.71417577 2.25833439,2.71417577 L0.946127519,2.71417577 C0.423881354,2.71417577 -4.16333634e-17,2.28878189 -4.16333634e-17,1.76467221 L-4.16333634e-17,0.949503559 C-4.16333634e-17,0.425393877 0.423881354,-2.13135065e-13 0.946127519,-2.13135065e-13 L4.26822157,-2.13135065e-13 C4.68500444,-2.13135065e-13 5.05311193,0.274775949 5.17378628,0.675745298 L5.8816073,3.02762389 C6.00228166,3.42859324 6.36937508,3.70336919 6.78717201,3.70336919 L14.5752313,3.70336919 Z M4.47833692,14.3045306 C4.47833692,13.3672393 5.23584738,12.6080436 6.16879199,12.6080436 C7.1017366,12.6080436 7.85924705,13.3672393 7.85924705,14.3045306 C7.85924705,15.2408042 7.1017366,16 6.16879199,16 C5.23584738,16 4.47833692,15.2408042 4.47833692,14.3045306 Z M11.4079858,14.3045306 C11.4079858,13.3672393 12.1654963,12.6080436 13.0984409,12.6080436 C14.0313855,12.6080436 14.7888959,13.3672393 14.7888959,14.3045306 C14.7888959,15.2408042 14.0313855,16 13.0984409,16 C12.1654963,16 11.4079858,15.2408042 11.4079858,14.3045306 Z"/>

  <view id="card" viewBox="20 20 16 16"/>
  <path transform="translate(20, 20)" d="M3.846,13 C2.785,13 2.608,12.905 2.478,12.835 C2.338,12.761 2.239,12.661 2.164,12.521 C2.095,12.393 2,12.215 2,11.154 L2,9.35 L14,9.35 L14,11.154 C14,12.215 13.906,12.393 13.836,12.521 C13.761,12.661 13.661,12.761 13.522,12.836 C13.393,12.905 13.215,13 12.155,13 L3.846,13 Z M2,5.35 L2,4.846 C2,3.785 2.095,3.607 2.164,3.478 C2.239,3.338 2.338,3.238 2.478,3.164 C2.608,3.095 2.785,3 3.846,3 L12.155,3 C13.215,3 13.393,3.095 13.523,3.164 C13.661,3.238 13.761,3.338 13.836,3.479 C13.906,3.607 14,3.785 14,4.846 L14,5.35 L2,5.35 Z M3.846,1 C2.508,1 2.024,1.139 1.535,1.4 C1.046,1.662 0.662,2.046 0.401,2.535 C0.139,3.023 0,3.509 0,4.846 L0,11.154 C0,12.491 0.139,12.977 0.401,13.465 C0.662,13.954 1.046,14.338 1.535,14.6 C2.024,14.86 2.508,15 3.846,15 L12.155,15 C13.492,15 13.977,14.86 14.465,14.6 C14.954,14.338 15.338,13.954 15.6,13.465 C15.861,12.977 16,12.491 16,11.154 L16,4.846 C16,3.509 15.861,3.023 15.6,2.535 C15.338,2.046 14.954,1.662 14.465,1.4 C13.977,1.139 13.492,1 12.155,1 L3.846,1 Z"/>
  
  <view id="check" viewBox="40 20 16 16"/>
  <path transform="translate(40, 20)" stroke="none" stroke-width="1" fill-rule="evenodd" d="M3.4806,5.28 C2.8786,4.676 1.9286,4.613 1.2526,5.132 C1.0936,5.253 0.9336,5.397 0.7776,5.57 C0.5316,5.839 0.3536,6.086 0.2256,6.305 C-0.1054,6.858 -0.0614,7.546 0.2906,8.085 C0.7346,8.761 1.2266,9.411 2.2606,10.498 C3.5196,11.819 4.3426,12.584 5.1206,13.163 C5.9876,13.807 7.1576,13.807 8.0236,13.163 C8.8016,12.584 9.8656,11.696 11.1456,10.393 C12.9536,8.554 15.3096,5.98 15.7536,5.303 C16.1066,4.764 16.1486,4.077 15.8196,3.524 C15.6906,3.304 15.5136,3.057 15.2676,2.789 C15.1116,2.615 14.9506,2.472 14.7936,2.351 C14.1166,1.832 13.1666,1.894 12.5636,2.499 L6.5716,8.521 L3.4806,5.28 Z" id="Fill-1"/>
  
  <view id="close" viewBox="60 20 16 16"/>
  <path transform="translate(60, 20)" d="M11.0197021,7.99983982 L15.5252283,3.49422341 C16.1582572,2.86118175 16.1582572,1.83216867 15.5252283,1.19784554 L14.8012174,0.473820155 C14.1681884,-0.157940052 13.136633,-0.157940052 12.5048855,0.473820155 L8.00064072,4.97943656 L3.49511453,0.473820155 C2.86208554,-0.157940052 1.83181163,-0.157940052 1.19878264,0.473820155 L0.474771744,1.19784554 C-0.158257248,1.83216867 -0.158257248,2.86118175 0.474771744,3.49422341 L4.98029793,7.99983982 L0.474771744,12.5054562 C-0.158257248,13.1384979 -0.158257248,14.167511 0.474771744,14.8005526 L1.19878264,15.524578 C1.83181163,16.1576197 2.86208554,16.1576197 3.49511453,15.524578 L8.00064072,11.0189616 L12.5048855,15.524578 C12.8214,15.8410989 13.236585,16 13.6530514,16 C14.0682364,16 14.4847029,15.8410989 14.8012174,15.524578 L15.5252283,14.8005526 C16.1582572,14.167511 16.1582572,13.1384979 15.5252283,12.5054562 L11.0197021,7.99983982 Z"/>
  
  <view id="comments" viewBox="80 20 16 16"/>
  <path transform="translate(80, 20)" d="M1.013,2.83390737 C1.348,2.24990737 1.839,1.79090737 2.465,1.47890737 C3.091,1.16690737 3.711,0.999907375 5.423,0.999907375 L10.577,0.999907375 C12.289,0.999907375 12.91,1.16690737 13.536,1.47890737 C14.161,1.79090737 14.653,2.24990737 14.988,2.83390737 C15.323,3.41790737 15.5,3.99690737 15.5,5.59490737 L15.5,6.36090737 C15.5,7.95890737 15.323,8.53890737 14.988,9.12290737 C14.653,9.70690737 14.161,10.1649074 13.536,10.4779074 C12.91,10.7899074 12.289,10.9569074 10.577,10.9569074 L8.967,10.9569074 L5.394,14.7959074 C5,15.2189074 4.291,14.9409074 4.291,14.3629074 L4.291,10.9219074 L4.284,9.84490737 L3.134,10.7409074 C2.884,10.6699074 2.674,10.5819074 2.465,10.4779074 C1.839,10.1649074 1.348,9.70690737 1.013,9.12290737 C0.679,8.53890737 0.5,7.95890737 0.5,6.36090737 L0.5,5.59490737 C0.5,3.99690737 0.679,3.41790737 1.013,2.83390737"/>
  
  <view id="dislike" viewBox="100 20 16 16"/>
  <path transform="translate(100, 20)" d="M14.9668,2.9088 C15.5378,2.9088 15.9998,3.3708 15.9998,3.9418 L15.9998,9.7138 C15.9998,10.2838 15.5378,10.7468 14.9668,10.7468 L14.0798,10.7468 C13.5088,10.7468 13.0468,10.2838 13.0468,9.7138 L13.0468,3.9418 C13.0468,3.3708 13.5088,2.9088 14.0798,2.9088 L14.9668,2.9088 Z M6.8613,15.8507 C5.7703,15.8557 4.9483,14.8587 5.1623,13.7887 L5.6243,11.4787 C5.6993,11.1007 5.4103,10.7467 5.0233,10.7467 L1.8423,10.7467 C0.6923,10.7467 -0.1767,9.7047 0.0303,8.5737 L0.9583,3.5057 C1.1183,2.6337 1.8783,1.9997 2.7643,1.9997 L7.9573,1.9997 C9.5163,1.9997 10.7813,3.2607 10.7873,4.8207 L10.8023,9.0737 C10.8043,9.7607 10.5793,10.4287 10.1623,10.9747 L8.0493,13.7357 L7.6143,15.2777 C7.5193,15.6157 7.2123,15.8497 6.8613,15.8507 Z"/>
  
  <view id="expand" viewBox="120 20 16 16"/>
  <path transform="translate(120, 20)" d="M5.2017,9.1885 C5.4517,8.9375 5.8547,8.9375 6.1037,9.1885 L6.8127,9.9015 C7.0627,10.1525 7.0617,10.5585 6.8127,10.8095 L3.8637,13.7825 L6.2167,13.7275 C6.6237,13.7175 6.9597,14.0125 7.0047,14.4165 C7.0137,14.5115 7.0177,14.6145 7.0097,14.7265 C6.9987,14.9015 6.9727,15.0455 6.9397,15.1655 C6.8577,15.4665 6.6067,15.6905 6.3047,15.7595 C5.9247,15.8465 4.2597,15.9555 3.0287,15.9925 C2.1567,16.0185 1.5007,15.9725 1.0437,15.9145 C0.5357,15.8505 0.1497,15.4605 0.0847,14.9495 C0.0277,14.4895 -0.0193,13.8295 0.0077,12.9525 C0.0447,11.7135 0.1517,10.0525 0.2377,9.6695 C0.3077,9.3655 0.5297,9.1125 0.8297,9.0315 C0.9477,8.9975 1.0917,8.9715 1.2647,8.9595 C1.3767,8.9515 1.4787,8.9545 1.5737,8.9655 C1.9747,9.0115 2.2677,9.3485 2.2577,9.7575 L2.2007,12.2135 L5.2017,9.1885 Z M10.7983,6.8115 C10.5483,7.0625 10.1453,7.0625 9.8963,6.8115 L9.1873,6.0985 C8.9373,5.8475 8.9383,5.4415 9.1873,5.1905 L12.1363,2.2175 L9.7833,2.2725 C9.3763,2.2825 9.0403,1.9875 8.9953,1.5835 C8.9863,1.4885 8.9823,1.3855 8.9903,1.2735 C9.0013,1.0985 9.0273,0.9545 9.0603,0.8345 C9.1423,0.5335 9.3933,0.3095 9.6953,0.2405 C10.0753,0.1535 11.7403,0.0445 12.9713,0.0075 C13.8433,-0.0185 14.4993,0.0275 14.9563,0.0855 C15.4643,0.1495 15.8503,0.5395 15.9153,1.0505 C15.9723,1.5105 16.0193,2.1705 15.9923,3.0475 C15.9553,4.2865 15.8483,5.9475 15.7623,6.3305 C15.6923,6.6345 15.4703,6.8875 15.1703,6.9685 C15.0523,7.0025 14.9083,7.0285 14.7353,7.0405 C14.6233,7.0485 14.5213,7.0455 14.4263,7.0345 C14.0253,6.9885 13.7323,6.6515 13.7423,6.2425 L13.7993,3.7865 L10.7983,6.8115 Z"/>
  
  <view id="filter" viewBox="140 20 16 16"/>
  <path transform="translate(140, 20)" d="M14.8,11 C15.463,11 16,11.537 16,12.2 L16,12.8 C16,13.463 15.463,14 14.8,14 L13,14 L13,14.8 C13,15.463 12.463,16 11.8,16 L10.2,16 C9.537,16 9,15.463 9,14.8 L9,14 L1.2,14 C0.537,14 6.39488462e-14,13.463 6.39488462e-14,12.8 L6.39488462e-14,12.2 C6.39488462e-14,11.537 0.537,11 1.2,11 L7.848,11 L9,13 L9,10.2 C9,9.537 9.537,9 10.2,9 L11.8,9 C12.463,9 13,9.537 13,10.2 L13,11 L14.8,11 Z M14.8,2 C15.463,2 16,2.537 16,3.2 L16,3.8 C16,4.463 15.463,5 14.8,5 L7,5 L7,5.8 C7,6.463 6.463,7 5.8,7 L4.2,7 C3.537,7 3,6.463 3,5.8 L3,5 L1.2,5 C0.537,5 6.39488462e-14,4.463 6.39488462e-14,3.8 L6.39488462e-14,3.2 C6.39488462e-14,2.537 0.537,2 1.2,2 L2,2 L3,4 L3,1.2 C3,0.537 3.537,0 4.2,0 L5.8,0 C6.463,0 7,0.537 7,1.2 L7,2 L14.8,2 Z"/>
  
  <view id="heartFill" viewBox="160 20 16 16"/>
  <path transform="translate(160, 20)" d="M7.387,14.8992 C3.315,13.5389091 0,9.49978182 0,5.8944 C0,2.92130909 1.768,1 4.504,1 C6.005,1 7.218,1.75549091 8,2.61585455 C8.78,1.75549091 9.993,1 11.496,1 C14.232,1 16,2.92130909 16,5.8944 C16,9.50283636 12.692,13.5429818 8.627,14.9002182 C8.427,14.9664 8.22,15 8.008,15 C7.795,15 7.587,14.9653818 7.387,14.8992 Z"/>
  
  <view id="heartHollow" viewBox="180 20 16 16"/>
  <path transform="translate(180, 20)" d="M11.496,1.125 C9.994,1.125 8.781,1.867 8,2.711 C7.218,1.866 6.006,1.125 4.505,1.125 C1.768,1.125 0,3.012 0,5.932 C0,9.472 3.316,13.44 7.388,14.775 C7.587,14.841 7.796,14.875 8.009,14.875 C8.221,14.875 8.428,14.841 8.627,14.776 C12.693,13.443 16,9.476 16,5.932 C16,3.012 14.232,1.125 11.496,1.125 M11.496,4.125 C11.984,4.125 13,4.65 13,5.932 C13,7.869 10.887,10.721 8.008,11.814 C5.121,10.72 3,7.867 3,5.932 C3,4.65 4.017,4.125 4.505,4.125 C5.852,4.125 6.766,4.845 7.324,5.516 C7.692,5.958 8.366,5.956 8.731,5.512 C9.283,4.842 10.182,4.125 11.496,4.125"/>

  <view id="login" viewBox="0 40 16 16"/>
  <path transform="translate(0, 40)" d="M3.26817146,12.6817093 C2.93537071,12.3489085 2.54816985,11.696907 2.55136985,10.9529054 C2.55376986,10.3753041 2.80257042,9.85130291 3.31217156,9.35130179 C4.42097404,8.26009934 5.55217658,8.27449937 6.67297909,9.39530189 C7.42258077,10.1449036 8.02098211,11.3337062 6.61377896,12.7409094 C4.98897532,14.365713 3.2849715,12.6985093 3.26817146,12.6817093 M9.24418486,8.54809999 C9.3961852,8.51529991 9.54338553,8.45369978 9.66098579,8.33529951 L12.2497916,5.74809371 C12.5177922,5.48009311 12.9521932,5.48009311 13.2209938,5.74809371 L13.7185949,6.24489482 C14.1097958,6.6368957 14.7449972,6.6368957 15.1369981,6.24489482 L15.7065993,5.67529355 C16.0978002,5.28329267 16.0978002,4.64809124 15.7065993,4.25609037 L15.1577981,3.70808914 C14.9185976,3.4680886 14.9185976,3.07928773 15.1577981,2.83928719 L15.6977993,2.29928598 C16.0890002,1.9080851 16.0890002,1.27208368 15.6977993,0.8808828 L15.128198,0.311281523 C14.7369972,-0.0807193555 14.1009957,-0.0807193555 13.7097949,0.311281523 L7.67298133,6.34729505 C7.55298107,6.46729532 7.49138093,6.61689566 7.45858085,6.77209601 C5.76097705,5.68649357 3.54337208,5.54649326 1.52256755,7.53209771 C-0.931837954,9.94490312 -0.0182359061,13.00331 1.46336741,14.4857133 C2.94657074,15.9681166 6.0089776,16.9537188 8.417783,14.5449134 C10.4249875,12.5377089 10.3393873,10.2641038 9.24418486,8.54809999"/>
  
  <view id="like" viewBox="20 40 16 16"/>
  <path transform="translate(20, 40)" d="M14.9668,0.9088 C15.5378,0.9088 15.9998,1.3708 15.9998,1.9418 L15.9998,7.7138 C15.9998,8.2838 15.5378,8.7468 14.9668,8.7468 L14.0798,8.7468 C13.5088,8.7468 13.0468,8.2838 13.0468,7.7138 L13.0468,1.9418 C13.0468,1.3708 13.5088,0.9088 14.0798,0.9088 L14.9668,0.9088 Z M6.8613,13.8507 C5.7703,13.8557 4.9483,12.8587 5.1623,11.7887 L5.6243,9.4787 C5.6993,9.1007 5.4103,8.7467 5.0233,8.7467 L1.8423,8.7467 C0.6923,8.7467 -0.1767,7.7047 0.0303,6.5737 L0.9583,1.5057 C1.1183,0.6337 1.8783,-0.0003 2.7643,-0.0003 L7.9573,-0.0003 C9.5163,-0.0003 10.7813,1.2607 10.7873,2.8207 L10.8023,7.0737 C10.8043,7.7607 10.5793,8.4287 10.1623,8.9747 L8.0493,11.7357 L7.6143,13.2777 C7.5193,13.6157 7.2123,13.8497 6.8613,13.8507 Z"/>
  
  <view id="minimize" viewBox="40 40 16 16"/>
  <path transform="translate(40, 40)" d="M1.813,15.7671 C1.563,16.0181 1.159,16.0181 0.911,15.7671 L0.201,15.0541 C-0.048,14.8031 -0.048,14.3961 0.202,14.1451 L3.151,11.1731 L0.798,11.2281 C0.39,11.2371 0.055,10.9431 0.01,10.5391 C5.42101086e-20,10.4441 -0.004,10.3411 0.004,10.2281 C0.016,10.0541 0.042,9.9091 0.075,9.7901 C0.157,9.4891 0.408,9.2651 0.71,9.1951 C1.09,9.1091 2.755,8.9991 3.986,8.9631 C4.857,8.9361 5.514,8.9831 5.971,9.0411 C6.479,9.1051 6.865,9.4951 6.929,10.0061 C6.987,10.4651 7.033,11.1261 7.007,12.0031 C6.97,13.2421 6.863,14.9031 6.777,15.2861 C6.707,15.5891 6.485,15.8421 6.185,15.9241 C6.067,15.9581 5.922,15.9831 5.75,15.9951 C5.638,16.0031 5.535,16.0001 5.441,15.9891 C5.04,15.9441 4.747,15.6071 4.757,15.1971 L4.813,12.7421 L1.813,15.7671 Z M14.187,0.2329 C14.437,-0.0181 14.841,-0.0181 15.089,0.2329 L15.799,0.9459 C16.048,1.1969 16.048,1.6039 15.798,1.8549 L12.849,4.8269 L15.202,4.7719 C15.61,4.7629 15.945,5.0569 15.99,5.4609 C16,5.5559 16.004,5.6589 15.996,5.7719 C15.984,5.9459 15.958,6.0909 15.925,6.2099 C15.843,6.5109 15.592,6.7349 15.29,6.8049 C14.91,6.8909 13.245,7.0009 12.014,7.0369 C11.143,7.0639 10.486,7.0169 10.029,6.9589 C9.521,6.8949 9.135,6.5049 9.071,5.9939 C9.013,5.5349 8.967,4.8739 8.993,3.9969 C9.03,2.7579 9.137,1.0969 9.223,0.7139 C9.293,0.4109 9.515,0.1579 9.815,0.0759 C9.933,0.0419 10.078,0.0169 10.25,0.0049 C10.362,-0.0031 10.465,-0.0001 10.559,0.0109 C10.96,0.0559 11.253,0.3929 11.243,0.8029 L11.187,3.2579 L14.187,0.2329 Z"/>
  
  <view id="menu" viewBox="60 40 16 16"/>
  <path transform="translate(60, 40)" d="M8.7998,9.5 L1.1998,9.5 C0.5368,9.5 -0.0002,8.963 -0.0002,8.3 L-0.0002,7.7 C-0.0002,7.037 0.5368,6.5 1.1998,6.5 L8.7998,6.5 C9.4628,6.5 9.9998,7.037 9.9998,7.7 L9.9998,8.3 C9.9998,8.963 9.4628,9.5 8.7998,9.5 M14.7998,15 L1.1998,15 C0.5368,15 -0.0002,14.463 -0.0002,13.8 L-0.0002,13.2 C-0.0002,12.537 0.5368,12 1.1998,12 L14.7998,12 C15.4628,12 15.9998,12.537 15.9998,13.2 L15.9998,13.8 C15.9998,14.463 15.4628,15 14.7998,15 Z M14.7998,4 L1.1998,4 C0.5368,4 -0.0002,3.463 -0.0002,2.8 L-0.0002,2.2 C-0.0002,1.537 0.5368,1 1.1998,1 L14.7998,1 C15.4628,1 15.9998,1.537 15.9998,2.2 L15.9998,2.8 C15.9998,3.463 15.4628,4 14.7998,4 Z"/>

  <view id="minus" viewBox="80 40 16 16"/>
  <path transform="translate(80, 40)" d="M13.5,10.00224 L2.5,10.00224 C1.671,10.00224 1,9.33124 1,8.50224 L1,7.50024 C1,6.67124 1.671,6.00024 2.5,6.00024 L13.5,6.00024 C14.329,6.00024 15,6.67124 15,7.50024 L15,8.50224 C15,9.33124 14.329,10.00224 13.5,10.00224"/>

  <view id="orderAscending" viewBox="100 40 16 16"/>
  <path transform="translate(100, 40)" d="M1.5,13 L14.5,13 C15.3284271,13 16,13.6715729 16,14.5 C16,15.3284271 15.3284271,16 14.5,16 L1.5,16 C0.671572875,16 1.01453063e-16,15.3284271 0,14.5 C-1.01453063e-16,13.6715729 0.671572875,13 1.5,13 Z M1.5,6.5 L8.5,6.5 C9.32842712,6.5 10,7.17157288 10,8 C10,8.82842712 9.32842712,9.5 8.5,9.5 L1.5,9.5 C0.671572875,9.5 1.01453063e-16,8.82842712 0,8 C-1.01453063e-16,7.17157288 0.671572875,6.5 1.5,6.5 Z M1.5,0 L3.5,0 C4.32842712,-1.52179594e-16 5,0.671572875 5,1.5 C5,2.32842712 4.32842712,3 3.5,3 L1.5,3 C0.671572875,3 1.01453063e-16,2.32842712 0,1.5 C-1.01453063e-16,0.671572875 0.671572875,1.52179594e-16 1.5,0 Z"/>

  <view id="orderDescending" viewBox="120 40 16 16"/>
  <path transform="translate(120, 40)" d="M1.5,13 L14.5,13 C15.3284271,13 16,13.6715729 16,14.5 C16,15.3284271 15.3284271,16 14.5,16 L1.5,16 C0.671572875,16 1.01453063e-16,15.3284271 0,14.5 C-1.01453063e-16,13.6715729 0.671572875,13 1.5,13 Z M1.5,6.5 L8.5,6.5 C9.32842712,6.5 10,7.17157288 10,8 C10,8.82842712 9.32842712,9.5 8.5,9.5 L1.5,9.5 C0.671572875,9.5 1.01453063e-16,8.82842712 0,8 C-1.01453063e-16,7.17157288 0.671572875,6.5 1.5,6.5 Z M1.5,0 L3.5,0 C4.32842712,-1.52179594e-16 5,0.671572875 5,1.5 C5,2.32842712 4.32842712,3 3.5,3 L1.5,3 C0.671572875,3 1.01453063e-16,2.32842712 0,1.5 C-1.01453063e-16,0.671572875 0.671572875,1.52179594e-16 1.5,0 Z"/>

  <view id="plus" viewBox="140 40 16 16"/>
  <path transform="translate(140, 40)" d="M14.5,5.999 L10.001,5.999 L10.001,1.5 C10.001,0.671 9.33,0 8.501,0 L7.499,0 C6.67,0 5.999,0.671 5.999,1.5 L5.999,5.999 L1.5,5.999 C0.671,5.999 0,6.67 0,7.499 L0,8.501 C0,9.33 0.671,10.001 1.5,10.001 L5.999,10.001 L5.999,14.5 C5.999,15.329 6.67,16 7.499,16 L8.501,16 C9.33,16 10.001,15.329 10.001,14.5 L10.001,10.001 L14.5,10.001 C15.329,10.001 16,9.33 16,8.501 L16,7.499 C16,6.67 15.329,5.999 14.5,5.999"/>

  <view id="profile" viewBox="160 40 16 16"/>
  <path transform="translate(160, 40)" d="M7.44279448,7 C5.23379448,7 4.44279448,5.433 4.44279448,3.5 C4.44279448,1.567 5.23379448,0 7.44279448,0 C9.65179448,0 10.4427945,1.567 10.4427945,3.5 C10.4427945,5.433 9.65179448,7 7.44279448,7 Z M7.44279448,9.5 C11.2397945,9.5 14.3867945,11.958 14.8767945,15.135 C14.9467945,15.588 14.5897945,16 14.1307945,16 L12.6017945,16 C12.2527945,16 11.9537945,15.756 11.8797945,15.415 C11.5207945,13.763 9.66779448,12.5 7.44279448,12.5 C5.21779448,12.5 3.36479448,13.763 3.00579448,15.415 C2.93179448,15.756 2.63279448,16 2.28379448,16 L0.754794475,16 C0.295794475,16 -0.0612055245,15.588 0.00879447548,15.135 C0.498794475,11.958 3.64579448,9.5 7.44279448,9.5 Z"/>

  <view id="sale" viewBox="180 40 16 16"/>
  <path transform="translate(180, 40)" d="M15.1963,1.22435 C15.7823,1.81035 15.7823,2.76035 15.1963,3.34635 L3.3183,15.22435 C2.7323,15.81035 1.7823,15.81035 1.1963,15.22435 L0.7723,14.80035 C0.1863,14.21435 0.1863,13.26535 0.7723,12.67935 L12.6513,0.80035 C13.2373,0.21435 14.1863,0.21435 14.7723,0.80035 L15.1963,1.22435 Z M13.1255,10.39135 C14.7045,10.39135 15.9845,11.63435 15.9845,13.16835 C15.9845,14.70335 14.7045,15.94635 13.1255,15.94635 C11.5475,15.94635 10.2665,14.70335 10.2665,13.16835 C10.2665,11.63435 11.5475,10.39135 13.1255,10.39135 Z M2.8745,5.60865 C1.2945,5.60865 0.0155,4.36565 0.0155,2.83165 C0.0155,1.29665 1.2945,0.05365 2.8745,0.05365 C4.4535,0.05365 5.7335,1.29665 5.7335,2.83165 C5.7335,4.36565 4.4535,5.60865 2.8745,5.60865 Z"/>

  <view id="search" viewBox="0 60 16 16"/>
  <path transform="translate(0, 60)" d="M6.6753,10.3306 L6.6613,10.3306 C5.7433,10.3266 4.8273,9.9076 4.0813,9.1506 C2.5643,7.6126 2.5843,5.6206 4.1333,4.0776 C4.8733,3.3406 5.7333,2.9506 6.6233,2.9506 L6.6373,2.9506 C7.5553,2.9546 8.4723,3.3726 9.2173,4.1266 C10.7333,5.6666 10.7133,7.6576 9.1653,9.2006 C8.4243,9.9396 7.5633,10.3306 6.6753,10.3306 M15.7003,13.5226 L12.9073,10.7296 C12.6673,10.4896 12.3633,10.3726 12.0513,10.3256 C13.9243,7.7276 13.6843,4.4746 11.3103,2.0656 C10.0053,0.7416 8.3473,0.0086 6.6453,-0.0004 L6.6183,-0.0004 C4.9453,-0.0004 3.3693,0.6886 2.0613,1.9946 C-0.6597,4.7056 -0.6897,8.4956 1.9873,11.2126 C3.2953,12.5386 4.9513,13.2736 6.6523,13.2806 L6.6793,13.2806 C7.9823,13.2806 9.2273,12.8546 10.3353,12.0496 C10.3833,12.3586 10.5003,12.6606 10.7383,12.8986 L13.5313,15.6916 C13.9313,16.0916 14.5783,16.0916 14.9773,15.6916 L15.7003,14.9686 C16.0993,14.5696 16.0993,13.9226 15.7003,13.5226"/>
  
  <view id="pin" viewBox="20 60 16 16"/>
  <path transform="translate(20, 60)" d="M4.57698344,6.83399126 C4.57698344,4.94464247 6.10962592,3.412 7.99897471,3.412 C9.89003023,3.412 11.420966,4.94464247 11.420966,6.83399126 C11.420966,8.72419342 9.89003023,10.2559825 7.99897471,10.2559825 C6.10962592,10.2559825 4.57698344,8.72419342 4.57698344,6.83399126 Z M3.56797471,1.62899126 C2.04397471,2.92599126 1.17097471,4.81499126 1.17097471,6.81199126 C1.17097471,11.2069913 4.08897471,14.0219913 5.82897471,15.3089913 C6.45297471,15.7709913 7.19197471,15.9999913 7.93297471,15.9999913 C8.71997471,15.9999913 9.50797471,15.7399913 10.1569747,15.2229913 C11.8089747,13.9089913 14.6089747,11.1299913 14.8189747,7.27199126 C15.0079747,3.78999126 12.5099747,0.635991263 9.13297471,0.0909912635 C7.12397471,-0.236008737 5.09597471,0.327991263 3.56797471,1.62899126 Z"/>

  <view id="time" viewBox="40 60 16 16"/>
  <path transform="translate(40, 60)" d="M10.3124,11.9885 C9.9704,11.9885 9.6294,11.8585 9.3694,11.5975 L7.0834,9.3115 C6.8334,9.0615 6.6924,8.7225 6.6924,8.3685 L6.6924,4.3685 C6.6924,3.6325 7.2894,3.0355 8.0254,3.0355 C8.7624,3.0355 9.3594,3.6325 9.3594,4.3685 L9.3594,7.8175 L11.2544,9.7125 C11.7754,10.2335 11.7754,11.0765 11.2544,11.5975 C10.9944,11.8585 10.6524,11.9885 10.3124,11.9885 Z M0.0004,7.9995 C0.0004,12.4185 3.5814,15.9995 8.0004,15.9995 C12.4184,15.9995 16.0004,12.4185 16.0004,7.9995 C16.0004,3.5815 12.4184,-0.0005 8.0004,-0.0005 C3.5814,-0.0005 0.0004,3.5815 0.0004,7.9995 Z"/>

  <view id="shop" viewBox="60 60 16 16"/>
  <path transform="translate(60, 60)" stroke-width="1" fill-rule="evenodd" d="M7.9996,11.0679 L7.9996,15.9999 L3.9996,15.9999 L3.9996,11.0679 C3.9996,10.6209 4.3626,10.2579 4.8096,10.2579 L7.1896,10.2579 C7.6366,10.2579 7.9996,10.6209 7.9996,11.0679 Z M14.9996,15.9999 L0.9996,15.9999 L0.9996,9.4659 C0.9996,8.6559 1.6356,7.9999 2.4196,7.9999 L13.5796,7.9999 C14.3636,7.9999 14.9996,8.6559 14.9996,9.4659 L14.9996,15.9999 Z M13.169,0 C13.684,0 14.155,0.282 14.398,0.735 C14.982,1.823 16,3.771 16,4.125 L16,5.075 C16,5.696 15.496,6.2 14.875,6.2 L13.924,6.2 C13.303,6.2 12.799,5.696 12.799,5.075 L12.799,4 L11.733,4 L11.733,5.075 C11.733,5.696 11.229,6.2 10.608,6.2 L9.658,6.2 C9.037,6.2 8.533,5.696 8.533,5.075 L8.533,4 L7.466,4 L7.466,5.075 C7.466,5.696 6.962,6.2 6.341,6.2 L5.391,6.2 C4.77,6.2 4.266,5.696 4.266,5.075 L4.266,4 L3.2,4 L3.2,5.075 C3.2,5.696 2.696,6.2 2.075,6.2 L1.125,6.2 C0.503,6.2 0,5.696 0,5.075 L0,4.125 C0,3.771 1.017,1.823 1.601,0.735 C1.844,0.282 2.315,0 2.83,0 L13.169,0 Z"/>

  <view id="undo" viewBox="80 60 16 16"/>
  <path transform="translate(80, 60)" d="M15.5439,7.623 C15.2879,7.064 14.8789,6.527 14.3769,6.134 C13.8769,5.736 13.3179,5.482 12.7869,5.319 C11.7259,4.999 10.7089,4.996 9.8769,4.984 C8.6369,4.961 4.8579,4.926 4.8579,4.926 L6.6109,3.324 C7.0219,2.921 7.0629,2.287 6.7119,1.835 C6.6289,1.73 6.5309,1.623 6.4159,1.519 C6.2319,1.355 6.0659,1.236 5.9169,1.15 C5.5419,0.93 5.0759,0.958 4.7099,1.194 C4.2519,1.49 3.4529,2.093 2.2059,3.299 C1.3219,4.153 0.7209,4.864 0.3279,5.383 C-0.1091,5.961 -0.1091,6.742 0.3279,7.32 C0.7209,7.84 1.3219,8.549 2.2059,9.403 C3.4529,10.61 4.2519,11.213 4.7099,11.509 C5.0759,11.746 5.5419,11.773 5.9169,11.554 C6.0659,11.467 6.2319,11.348 6.4159,11.184 C6.5309,11.08 6.6289,10.973 6.7119,10.867 C7.0629,10.416 7.0219,9.782 6.6109,9.379 L4.8509,7.955 C4.9259,7.954 8.4919,7.925 9.8769,7.899 C10.3139,7.892 10.6779,7.884 11.0329,7.905 C11.3839,7.923 11.7059,7.969 11.9819,8.042 C12.5439,8.205 12.8299,8.413 13.0339,8.802 C13.1329,9.005 13.2119,9.263 13.2499,9.566 C13.2839,9.865 13.2939,10.22 13.2649,10.518 C13.2369,10.821 13.1729,11.089 13.0769,11.31 C12.9759,11.528 12.8469,11.702 12.6699,11.861 C12.3139,12.174 11.6989,12.395 10.9829,12.498 C10.7019,12.541 9.7749,12.606 9.8869,13.8 C9.9999,15 10.9029,14.983 11.2919,14.942 C12.2359,14.836 13.3149,14.605 14.2909,13.863 C14.7669,13.491 15.1739,12.996 15.4459,12.461 C15.7159,11.925 15.8619,11.369 15.9359,10.84 C16.0089,10.306 16.0169,9.816 15.9719,9.281 C15.9219,8.749 15.7969,8.183 15.5439,7.623"/>
  
  <view id="video" viewBox="100 60 16 16"/>
  <path transform="translate(100, 60)" d="M2,8.50783626 C2,5.57283626 2.182,3.51083626 2.389,2.11183626 C2.617,0.574836257 4.091,-0.369163743 5.478,0.137836257 C6.667,0.571836257 8.286,1.33183626 10.346,2.66183626 C12.761,4.22083626 14.335,5.65083626 15.313,6.70583626 C16.25,7.71583626 16.228,9.33183626 15.25,10.2978363 C14.268,11.2698363 12.709,12.5238363 10.346,13.7608363 C8.136,14.9168363 6.433,15.5568363 5.224,15.9108363 C3.878,16.3048363 2.504,15.3518363 2.297,13.8878363 C2.131,12.7128363 2,10.9968363 2,8.50783626"/>

  <view id="socialsFb" viewBox="120 60 16 16"/>
  <path transform="translate(120, 60)" d="M6.36146277,16 L6.36146277,8.74308309 L4,8.74308309 L4,5.87801459 L6.36146277,5.87801459 L6.36146277,3.18258831 C6.36146277,1.85689096 7.59037473,0.204425003 9.25302032,0.0473740111 C10.7947265,-0.0982921029 12,0.138453031 12,0.138453031 L12,2.78675648 L10.2503185,2.78675648 C9.6995491,2.78675648 9.25302032,3.2524809 9.25302032,3.82692713 L9.25302032,5.87801459 L11.9036388,5.87801459 L11.4939051,8.74308309 L9.23191195,8.74308309 L9.23191195,16 L6.36146277,16 Z"/>

  <view id="socialsTwitter" viewBox="140 60 16 16"/>
  <path transform="translate(140, 60)" stroke="none" stroke-width="1" fill-rule="evenodd" d="M15,3.80227682 C14.48536,4.0233293 13.931464,4.17226767 13.35052,4.23945506 C13.943504,3.89572198 14.39884,3.35172607 14.613544,2.70334879 C14.058416,3.02141964 13.443928,3.2528128 12.78968,3.37733416 C12.265576,2.83761529 11.519096,2.5 10.693096,2.5 C9.106728,2.5 7.820352,3.7436435 7.820352,5.27671795 C7.820352,5.49468446 7.845608,5.70653319 7.894888,5.90988198 C5.50772,5.79386056 3.39092,4.68881473 1.9744,3.00858853 C1.727496,3.41885933 1.585424,3.89572198 1.585424,4.40431051 C1.585424,5.36772682 2.092504,6.21820768 2.863568,6.71575171 C2.392496,6.70172952 1.94976,6.57655849 1.562688,6.36833712 C1.562072,6.37992302 1.562072,6.39156306 1.562072,6.4037445 C1.562072,7.7487917 2.552264,8.87154121 3.866472,9.12616031 C3.625168,9.18961206 3.37132,9.22382837 3.10924,9.22382837 C2.924216,9.22382837 2.744232,9.20612468 2.569288,9.17374913 C2.934968,10.2770083 3.995272,11.0798462 5.252584,11.1024766 C4.269336,11.8473309 3.030952,12.2911683 1.68516,12.2911683 C1.453432,12.2911683 1.22484,12.2783372 1,12.252675 C2.271256,13.0402996 3.780568,13.5 5.402888,13.5 C10.686152,13.5 13.575304,9.26838536 13.575304,5.59906584 C13.575304,5.47882153 13.572784,5.35911861 13.567072,5.24006536 C14.127912,4.84814793 14.615392,4.35910384 15,3.80227682" id="Mask"/>

  <view id="socialsOk" viewBox="160 60 16 16"/>
  <path transform="translate(160, 60)" stroke="none" stroke-width="1" fill-rule="evenodd" d="M7.99995976,2.41681054 C8.89363257,2.41681054 9.62069252,3.16960535 9.62069252,4.0948271 C9.62069252,5.02013218 8.89363257,5.772927 7.99995976,5.772927 C7.10628694,5.772927 6.37930748,5.02013218 6.37930748,4.0948271 C6.37930748,3.16960535 7.10628694,2.41681054 7.99995976,2.41681054 M7.99995976,8.18973754 C5.81926286,8.18973754 4.04511747,6.35279485 4.04511747,4.0948271 C4.04511747,1.83694269 5.81926286,0 7.99995976,0 C10.1807371,0 11.9548825,1.83694269 11.9548825,4.0948271 C11.9548825,6.35279485 10.1807371,8.18973754 7.99995976,8.18973754 Z M12.3131612,9.05983685 C12.6628873,9.62053689 12.5073819,10.3684981 11.9659303,10.7305196 C11.2515072,11.2081314 10.4668169,11.5470682 9.64574543,11.7382463 L11.7670412,13.9344604 C12.2228522,14.4063218 12.2228522,15.1714507 11.7670412,15.6433954 C11.3113107,16.1152569 10.5722579,16.1152569 10.1165274,15.6433954 L8.00126833,13.4533484 L5.88351407,15.6460623 C5.65564883,15.881993 5.356953,16 5.05825716,16 C4.75956133,16 4.4608655,15.881993 4.23300026,15.6460623 C3.77718929,15.1742008 3.77718929,14.409072 4.23300026,13.9371272 L6.37812088,11.7160783 C5.53724905,11.5083993 4.73702433,11.145211 4.01157417,10.635264 C3.47833248,10.260325 3.33956891,9.50886358 3.70169032,8.95674738 C4.06373124,8.40463118 4.78942287,8.26078928 5.32282553,8.63581161 C6.13077723,9.20392876 7.07668761,9.5041133 8.05825476,9.5041133 C8.99973823,9.5041133 9.91313093,9.22618008 10.699592,8.70031545 C11.2410436,8.3382939 11.9635156,8.49922014 12.3131612,9.05983685 Z" id="Icon-/-Ok"/>

  <view id="socialsVk" viewBox="180 60 16 16"/>
  <path transform="translate(180, 60)" stroke="none" stroke-width="1" fill-rule="evenodd" d="M15.6328994,3.6434002 C15.7441754,3.27256363 15.6328994,3 15.1035258,3 L13.3531172,3 C12.9080133,3 12.7028404,3.23542996 12.5915644,3.49499055 C12.5915644,3.49499055 11.7014816,5.66474707 10.4404373,7.07407607 C10.032467,7.48204631 9.84704873,7.61195163 9.62437175,7.61195163 C9.5132208,7.61195163 9.35218321,7.48204631 9.35218321,7.11120974 L9.35218321,3.6434002 C9.35218321,3.19829629 9.22290303,3 8.85206646,3 L6.10142434,3 C5.82335943,3 5.65607038,3.20654822 5.65607038,3.40234392 C5.65607038,3.82431743 6.28646754,3.92159014 6.35148272,5.10836719 L6.35148272,7.68596891 C6.35148272,8.25122587 6.2494589,8.35362477 6.02690694,8.35362477 C5.43351842,8.35362477 3.99005645,6.17436604 3.13398161,3.68053387 C2.96619244,3.19579571 2.79790315,3 2.35054872,3 L0.600140099,3 C0.10002335,3 0,3.23542996 0,3.49499055 C0,3.95859878 0.593388523,6.25813559 2.76302001,9.29947057 C4.20948268,11.3763304 6.24745843,12.5022182 8.10189134,12.5022182 C9.21452608,12.5022182 9.35218321,12.2521599 9.35218321,11.8214343 L9.35218321,10.2516929 C9.35218321,9.75157611 9.45758282,9.65180282 9.80991507,9.65180282 C10.0694757,9.65180282 10.5145796,9.78158312 11.553072,10.7829419 C12.739849,11.9697189 12.9356447,12.5022182 13.6031756,12.5022182 L15.3535842,12.5022182 C15.853701,12.5022182 16.1037593,12.2521599 15.9594756,11.7586697 C15.8016888,11.2668048 15.2349315,10.5532633 14.483131,9.70731578 C14.0751608,9.22520324 13.4631429,8.70608205 13.2777246,8.44639643 C13.018039,8.11269353 13.0923063,7.96415885 13.2777246,7.66746459 C13.2777246,7.66746459 15.4103475,4.66338831 15.6328994,3.6434002" id="Fill-1"/>

  <view id="socialsYoutube" viewBox="0 80 16 16"/>
  <path transform="translate(0, 80)" stroke="none" stroke-width="1" fill-rule="evenodd" d="M6.48616379,9.75558496 L6.48554157,5.95265723 L10.2683416,7.86066309 L6.48616379,9.75558496 Z M14.7917416,5.2937959 C14.7917416,5.2937959 14.6548527,4.36107324 14.2350082,3.95020605 C13.7028527,3.41120605 13.105986,3.40864941 12.8323638,3.37706738 C10.8732971,3.24006152 7.93454157,3.24006152 7.93454157,3.24006152 L7.92831935,3.24006152 C7.92831935,3.24006152 4.98971935,3.24006152 3.03049713,3.37706738 C2.7568749,3.40864941 2.16031935,3.41120605 1.62785268,3.95020605 C1.20800824,4.36107324 1.07143046,5.2937959 1.07143046,5.2937959 C1.07143046,5.2937959 0.931430459,6.38909082 0.931430459,7.48438574 L0.931430459,8.51140332 C0.931430459,9.60654785 1.07143046,10.7018428 1.07143046,10.7018428 C1.07143046,10.7018428 1.20800824,11.6345654 1.62785268,12.0454326 C2.16031935,12.584583 2.85985268,12.5672881 3.17143046,12.623835 C4.29158601,12.7277549 7.93143046,12.7599385 7.93143046,12.7599385 C7.93143046,12.7599385 10.8732971,12.7555771 12.8323638,12.6187217 C13.105986,12.5871396 13.7028527,12.584583 14.2350082,12.0454326 C14.6548527,11.6345654 14.7917416,10.7018428 14.7917416,10.7018428 C14.7917416,10.7018428 14.9314305,9.60654785 14.9314305,8.51140332 L14.9314305,7.48438574 C14.9314305,6.38909082 14.7917416,5.2937959 14.7917416,5.2937959 L14.7917416,5.2937959 Z" id="Fill-1"/>

  <view id="socialsInstagram" viewBox="20 80 16 16"/>
  <path transform="translate(20, 80)" stroke="none" stroke-width="1" fill-rule="evenodd" d="M14.9502228,11.4502509 C14.9121975,12.2828023 14.7731209,12.7349138 14.6562006,13.035785 C14.5013674,13.4343019 14.316331,13.7187429 14.0174808,14.0175931 C13.7187429,14.316331 13.4342644,14.5013674 13.0357476,14.6562755 C12.7348389,14.7731583 12.2827274,14.9123098 11.4502509,14.9502602 C10.5499951,14.9913545 10.2800381,15 7.99998129,15 C5.71992451,15 5.44996752,14.9913545 4.54971168,14.9502602 C3.71727257,14.9123098 3.26512363,14.7731583 2.96425239,14.6562755 C2.56569812,14.5013674 2.2812571,14.316331 1.98248175,14.0175931 C1.68370639,13.7187429 1.49867002,13.4343019 1.34379937,13.035785 C1.22687914,12.7349138 1.0877276,12.2828023 1.04973975,11.4502509 C1.00868294,10.5499202 1,10.2799258 1,7.99998129 C1,5.72011164 1.00868294,5.45011722 1.04973975,4.54974911 C1.0877276,3.71727257 1.22687914,3.26516105 1.34379937,2.96425239 C1.49867002,2.56569812 1.68370639,2.28133195 1.98248175,1.98248175 C2.2812571,1.68374382 2.56569812,1.49870745 2.96425239,1.34379937 C3.26512363,1.22687914 3.71727257,1.08776503 4.54971168,1.04973975 C5.45011722,1.00872036 5.72011164,1 7.99998129,1 C10.2798509,1 10.5498828,1.00872036 11.4502509,1.04973975 C12.2827274,1.08776503 12.7348389,1.22687914 13.0357476,1.34379937 C13.4342644,1.49870745 13.7187429,1.68374382 14.0174808,1.98248175 C14.316331,2.28133195 14.5013674,2.56569812 14.6562006,2.96425239 C14.7731209,3.26516105 14.9121975,3.71727257 14.9502228,4.54974911 C14.9912796,5.45011722 15,5.72011164 15,7.99998129 C15,10.2799258 14.9912796,10.5499202 14.9502228,11.4502509 Z M7.99997754,3.615409 C5.57844878,3.615409 3.61539403,5.57850118 3.61539403,8.00002994 C3.61539403,10.4215961 5.57844878,12.384576 7.99997754,12.384576 C10.4215063,12.384576 12.3845611,10.4215961 12.3845611,8.00002994 C12.3845611,5.57850118 10.4215063,3.615409 7.99997754,3.615409 Z M7.99997754,10.8461618 C6.42806663,10.8461618 5.15380827,9.57190343 5.15380827,8.00002994 C5.15380827,6.42811903 6.42806663,5.15386067 7.99997754,5.15386067 C9.57188846,5.15386067 10.8461468,6.42811903 10.8461468,8.00002994 C10.8461468,9.57190343 9.57188846,10.8461618 7.99997754,10.8461618 Z M12.557853,2.41755301 C11.9920025,2.41755301 11.5331916,2.87625158 11.5331916,3.44217694 C11.5331916,4.00802744 11.9920025,4.46680087 12.557853,4.46680087 C13.1237409,4.46680087 13.5824769,4.00802744 13.5824769,3.44217694 C13.5824769,2.87625158 13.1237409,2.41755301 12.557853,2.41755301 Z" id="Icon-/-Instagram"/>

  <view id="cancel" viewBox="40 80 16 16"/>
  <path transform="translate(40, 80)" stroke="none" stroke-width="1" fill-rule="evenodd" d="M8,13 C7.168,13 6.396,12.776 5.705,12.416 L12.416,5.705 C12.776,6.396 13,7.168 13,8 C13,10.757 10.757,13 8,13 M8,3 C8.832,3 9.604,3.224 10.295,3.584 L3.584,10.295 C3.224,9.604 3,8.832 3,8 C3,5.243 5.243,3 8,3 M8,0 C3.582,0 0,3.582 0,8 C0,12.418 3.582,16 8,16 C12.418,16 16,12.418 16,8 C16,3.582 12.418,0 8,0" id="Fill-1"/>

  <view id="phone" viewBox="60 80 16 16"/>
  <path transform="translate(60, 80)" stroke="none" stroke-width="1" fill-rule="evenodd" d="M14.2705,15.0762 L15.4545,13.8882 C16.1825,13.1582 16.1825,11.9732 15.4545,11.2432 L13.6595,9.4412 C12.9315,8.7112 11.7515,8.7112 11.0235,9.4412 L9.6655,10.8052 C9.3525,11.1192 8.8785,11.2182 8.4715,11.0422 C7.9275,10.8072 7.1475,10.3762 6.4045,9.6312 C5.6615,8.8852 5.2325,8.1022 4.9985,7.5562 C4.8235,7.1482 4.9215,6.6722 5.2355,6.3582 L6.5935,4.9942 C7.3215,4.2642 7.3215,3.0802 6.5935,2.3492 L4.7985,0.5482 C4.0705,-0.1828 2.8905,-0.1828 2.1635,0.5482 L0.9135,1.8032 C0.2075,2.5112 -0.0695,3.5072 0.0145,4.5052 C0.2915,7.7632 1.6205,10.1642 3.7465,12.2992 C5.8735,14.4332 8.7975,15.7672 11.6685,15.9892 C12.6325,16.0632 13.5875,15.7622 14.2705,15.0762" id="Fill-1"/>

  <view id="tips" viewBox="80 80 16 16"/>
  <path transform="translate(80, 80)" stroke="none" stroke-width="1" fill-rule="evenodd" d="M7.3159,12.0269 C8.4069,12.0269 9.2909,12.9159 9.2909,14.0139 C9.2909,15.1109 8.4069,15.9999 7.3159,15.9999 C6.2259,15.9999 5.3409,15.1109 5.3409,14.0139 C5.3409,12.9159 6.2259,12.0269 7.3159,12.0269 Z M7.5923,0 C10.6233,0 12.0003,1.686 12.0003,3.603 C12.0003,5.358 10.9253,6.517 10.0493,7.482 C8.9183,8.728 8.9183,9.553 8.9183,9.553 L8.9153,9.635 C8.8943,10.276 8.3713,10.785 7.7343,10.785 L7.2823,10.785 L6.8963,10.785 C6.3023,10.785 5.8193,10.305 5.8123,9.707 L5.8103,9.544 C5.8103,9.544 5.7883,8.203 7.1553,6.559 C7.8903,5.682 8.4883,4.942 8.4883,4.157 C8.4883,3.349 7.9593,2.818 6.8113,2.771 C6.4133,2.771 5.9703,2.848 5.5533,2.981 C4.9693,3.167 4.3453,2.84 4.1623,2.251 L4.0513,1.893 C3.8733,1.319 4.1713,0.701 4.7323,0.495 C5.5103,0.209 6.4933,0 7.5923,0 Z" id="Fill-1"/>

  <view id="list" viewBox="100 80 16 16"/>
  <path transform="translate(100, 80)" stroke="none" stroke-width="1" fill-rule="evenodd" d="M1.2,4 C0.537,4 0,3.463 0,2.8 L0,2.2 C0,1.537 0.537,1 1.2,1 L1.8014334,1 C2.4644334,1 3.0014334,1.537 3.0014334,2.2 L3.0014334,2.8 C3.0014334,3.463 2.4644334,4 1.8014334,4 L1.2,4 Z M6.2,15 C5.537,15 5,14.463 5,13.8 L5,13.2 C5,12.537 5.537,12 6.2,12 L14.8005994,12 C15.4635994,12 16.0005994,12.537 16.0005994,13.2 L16.0005994,13.8 C16.0005994,14.463 15.4635994,15 14.8005994,15 L6.2,15 Z M6.2,9.5 C5.537,9.5 5,8.963 5,8.3 L5,7.7 C5,7.037 5.537,6.5 6.2,6.5 L14.8005994,6.5 C15.4635994,6.5 16.0005994,7.037 16.0005994,7.7 L16.0005994,8.3 C16.0005994,8.963 15.4635994,9.5 14.8005994,9.5 L6.2,9.5 Z M6.2,4 C5.537,4 5,3.463 5,2.8 L5,2.2 C5,1.537 5.537,1 6.2,1 L14.8005994,1 C15.4635994,1 16.0005994,1.537 16.0005994,2.2 L16.0005994,2.8 C16.0005994,3.463 15.4635994,4 14.8005994,4 L6.2,4 Z M1.2,15 C0.537,15 0,14.463 0,13.8 L0,13.2 C0,12.537 0.537,12 1.2,12 L1.8014334,12 C2.4644334,12 3.0014334,12.537 3.0014334,13.2 L3.0014334,13.8 C3.0014334,14.463 2.4644334,15 1.8014334,15 L1.2,15 Z M1.2,9.5 C0.537,9.5 0,8.963 0,8.3 L0,7.7 C0,7.037 0.537,6.5 1.2,6.5 L1.8014334,6.5 C2.4644334,6.5 3.0014334,7.037 3.0014334,7.7 L3.0014334,8.3 C3.0014334,8.963 2.4644334,9.5 1.8014334,9.5 L1.2,9.5 Z" id="Fill-1"/>

  <view id="route" viewBox="120 80 16 16"/>
  <path transform="translate(120, 80)" stroke="none" stroke-width="1" fill-rule="evenodd" d="M11.9041,5.3594 L15.0551,8.1604 C15.3851,8.4534 15.1771,9.0004 14.7361,9.0004 L4.4801,9.0004 C4.2151,9.0004 4.0001,8.7844 4.0001,8.5194 L4.0001,1.4804 C4.0001,1.2154 4.2151,1.0004 4.4801,1.0004 L14.7361,1.0004 C15.1771,1.0004 15.3851,1.5464 15.0551,1.8394 L11.9041,4.6404 C11.6891,4.8324 11.6891,5.1684 11.9041,5.3594 Z M2.326,0 C2.698,0 3,0.302 3,0.674 L3,15.326 C3,15.698 2.698,16 2.326,16 L1.674,16 C1.302,16 1,15.698 1,15.326 L1,0.674 C1,0.302 1.302,0 1.674,0 L2.326,0 Z" id="Fill-1"/>
</svg>